<svg width="27" height="28" viewBox="0 0 27 28" fill="none" xmlns="http://www.w3.org/2000/svg">
<path fill-rule="evenodd" clip-rule="evenodd" d="M20.7437 10.5435C20.7437 11.8999 21.1022 12.6983 21.8911 13.6195C22.489 14.2983 22.6801 15.1706 22.6801 16.1147C22.6801 17.06 22.3688 17.9551 21.7473 18.6828C20.9348 19.5552 19.7873 20.1121 18.6163 20.2089C16.9182 20.3535 15.2212 20.4753 13.5006 20.4753C11.7789 20.4753 10.0819 20.4025 8.38492 20.2089C7.2128 20.1121 6.06537 19.5552 5.25283 18.6828C4.63027 17.9551 4.32007 17.06 4.32007 16.1147C4.32007 15.1706 4.51113 14.2983 5.109 13.6195C5.92154 12.6983 6.25643 11.8999 6.25643 10.5435V10.0823C6.25643 8.26585 6.71046 7.07807 7.64322 5.9164C9.03002 4.21958 11.253 3.20258 13.4523 3.20258H13.5478C15.7944 3.20258 18.0893 4.26853 19.4524 6.03714C20.3369 7.17597 20.7437 8.3148 20.7437 10.0823V10.5435ZM11.2998 21.8093C11.8397 21.694 15.1296 21.694 15.6695 21.8093C16.131 21.9159 16.6302 22.1639 16.6302 22.7077C16.6033 23.2266 16.2996 23.6845 15.8788 23.9749L15.8799 23.976C15.3357 24.4002 14.697 24.67 14.0294 24.7668C13.6601 24.8135 13.2973 24.8157 12.941 24.7668C12.2723 24.67 11.6336 24.4002 11.0894 23.976L11.0905 23.9749C10.6697 23.6845 10.366 23.2266 10.3391 22.7077C10.3391 22.1639 10.8382 21.9159 11.2998 21.8093Z" fill="white"/>
<path d="M21.891 13.6196C21.1021 12.6983 20.7436 11.8999 20.7436 10.5436V10.0824C20.7436 8.31486 20.3368 7.17603 19.4523 6.0372C18.0891 4.26859 15.7943 3.20264 13.5477 3.20264H13.4522C11.2528 3.20264 9.02989 4.21964 7.6431 5.91646C6.71034 7.07813 6.25631 8.26591 6.25631 10.0824V10.5436C6.25631 11.8999 5.92141 12.6983 5.10887 13.6196C4.51101 14.2983 4.31995 15.1707 4.31995 16.1148C4.31995 17.06 4.63015 17.9552 5.2527 18.6829C6.06525 19.5552 7.21268 20.1121 8.3848 20.2089C10.0818 20.4025 11.7788 20.4754 13.5005 20.4754C15.2211 20.4754 16.9181 20.3536 18.6162 20.2089C19.7872 20.1121 20.9346 19.5552 21.7472 18.6829C22.3687 17.9552 22.6799 17.06 22.6799 16.1148C22.6799 15.1707 22.4889 14.2983 21.891 13.6196Z" fill="white"/>
<path opacity="0.4" d="M15.6693 21.8094C15.1294 21.6941 11.8396 21.6941 11.2997 21.8094C10.8381 21.916 10.339 22.164 10.339 22.7078C10.3658 23.2267 10.6696 23.6846 11.0903 23.975L11.0893 23.9761C11.6335 24.4003 12.2721 24.67 12.9408 24.7668C13.2972 24.8158 13.66 24.8136 14.0292 24.7668C14.6969 24.67 15.3355 24.4003 15.8797 23.9761L15.8787 23.975C16.2994 23.6846 16.6032 23.2267 16.63 22.7078C16.63 22.164 16.1309 21.916 15.6693 21.8094Z" fill="white"/>
<path d="M20.8636 7.86632C22.897 7.86632 24.5454 6.21792 24.5454 4.1845C24.5454 2.15109 22.897 0.502686 20.8636 0.502686C18.8302 0.502686 17.1818 2.15109 17.1818 4.1845C17.1818 6.21792 18.8302 7.86632 20.8636 7.86632Z" fill="#17C3CE"/>
</svg>
